<?xml version="1.0" encoding="iso-8859-1"?>
<!-- Uploaded to: SVG Repo, www.svgrepo.com, Generator: SVG Repo Mixer Tools -->
<svg version="1.1" id="Layer_1" xmlns="http://www.w3.org/2000/svg" xmlns:xlink="http://www.w3.org/1999/xlink" 
	 viewBox="0 0 509.287 509.287" xml:space="preserve">
<circle style="fill:#71D456;" cx="254.644" cy="254.644" r="254.644"/>
<path style="fill:#646B79;" d="M374.336,42.384H134.951c-13.224,0-24.074,10.85-24.074,24.074v376.71
	c0,13.224,10.85,24.074,24.074,24.074h239.385c13.224,0,24.074-10.85,24.074-24.074V66.119
	C398.072,52.895,387.56,42.384,374.336,42.384z"/>
<rect x="140.037" y="74.257" style="fill:#6EB1E1;" width="228.874" height="57.981"/>
<g>
	<rect x="140.037" y="163.772" style="fill:#4F5565;" width="95.619" height="28.482"/>
	<rect x="273.293" y="163.772" style="fill:#4F5565;" width="95.619" height="28.482"/>
	<rect x="140.037" y="222.093" style="fill:#4F5565;" width="53.234" height="53.234"/>
	<rect x="226.84" y="222.093" style="fill:#4F5565;" width="53.234" height="53.234"/>
	<rect x="313.303" y="222.093" style="fill:#4F5565;" width="53.234" height="53.234"/>
	<rect x="140.037" y="301.775" style="fill:#4F5565;" width="53.234" height="53.234"/>
	<rect x="226.84" y="301.775" style="fill:#4F5565;" width="53.234" height="53.234"/>
	<rect x="313.303" y="301.775" style="fill:#4F5565;" width="53.234" height="53.234"/>
	<rect x="140.037" y="381.796" style="fill:#4F5565;" width="53.234" height="53.234"/>
	<rect x="226.84" y="381.796" style="fill:#4F5565;" width="53.234" height="53.234"/>
	<rect x="313.303" y="381.796" style="fill:#4F5565;" width="53.234" height="53.234"/>
</g>
</svg>