<?xml version="1.0" encoding="iso-8859-1"?>
<!-- Uploaded to: SVG Repo, www.svgrepo.com, Generator: SVG Repo Mixer Tools -->
<svg height="800px" width="800px" version="1.1" id="Layer_1" xmlns="http://www.w3.org/2000/svg" xmlns:xlink="http://www.w3.org/1999/xlink" 
	 viewBox="0 0 512 512" xml:space="preserve">
<g>
	<path style="fill:#2C3E50;" d="M269.241,397.241c0-51.05,33.359-94.27,79.448-109.162V41.781C348.69,18.706,329.984,0,306.909,0
		H55.022C31.947,0,13.241,18.706,13.241,41.781v428.438c0,23.075,18.706,41.781,41.781,41.781h251.886
		c10.884,0,20.701-4.255,28.142-11.079C296.192,482.534,269.241,443.083,269.241,397.241"/>
	<polygon style="fill:#4C8056;" points="57.379,176.552 304.552,176.552 304.552,79.448 57.379,79.448 	"/>
	<g>
		<path style="fill:#16222D;" d="M101.517,52.966H48.552c-4.882,0-8.828-3.946-8.828-8.828s3.946-8.828,8.828-8.828h52.966
			c4.882,0,8.828,3.946,8.828,8.828S106.399,52.966,101.517,52.966"/>
		<polygon style="fill:#16222D;" points="66.207,256 119.172,256 119.172,211.862 66.207,211.862 		"/>
		<polygon style="fill:#16222D;" points="154.483,256 207.448,256 207.448,211.862 154.483,211.862 		"/>
		<polygon style="fill:#16222D;" points="242.759,256 295.724,256 295.724,211.862 242.759,211.862 		"/>
		<polygon style="fill:#16222D;" points="66.207,326.621 119.172,326.621 119.172,282.483 66.207,282.483 		"/>
		<polygon style="fill:#16222D;" points="154.483,326.621 207.448,326.621 207.448,282.483 154.483,282.483 		"/>
		<polygon style="fill:#16222D;" points="66.207,397.241 119.172,397.241 119.172,353.103 66.207,353.103 		"/>
		<polygon style="fill:#16222D;" points="154.483,397.241 207.448,397.241 207.448,353.103 154.483,353.103 		"/>
		<polygon style="fill:#16222D;" points="66.207,476.69 119.172,476.69 119.172,432.552 66.207,432.552 		"/>
		<polygon style="fill:#16222D;" points="154.483,476.69 207.448,476.69 207.448,432.552 154.483,432.552 		"/>
	</g>
	<g>
		<path style="fill:#76A87E;" d="M154.483,158.897c-4.882,0-8.828-3.946-8.828-8.828v-44.138c0-4.882,3.946-8.828,8.828-8.828
			s8.828,3.946,8.828,8.828v44.138C163.31,154.951,159.364,158.897,154.483,158.897"/>
		<path style="fill:#76A87E;" d="M233.931,158.897c-4.882,0-8.828-3.946-8.828-8.828v-44.138c0-4.882,3.946-8.828,8.828-8.828
			s8.828,3.946,8.828,8.828v44.138C242.759,154.951,238.813,158.897,233.931,158.897"/>
		<path style="fill:#76A87E;" d="M269.241,158.897c-4.882,0-8.828-3.946-8.828-8.828v-44.138c0-4.882,3.946-8.828,8.828-8.828
			c4.882,0,8.828,3.946,8.828,8.828v44.138C278.069,154.951,274.123,158.897,269.241,158.897"/>
		<path style="fill:#76A87E;" d="M189.793,158.897c-2.26,0-4.52-0.865-6.241-2.586c-3.452-3.452-3.452-9.031,0-12.482L192.38,135
			c3.452-3.452,9.031-3.452,12.482,0c3.452,3.452,3.452,9.031,0,12.482l-8.828,8.828
			C194.313,158.031,192.053,158.897,189.793,158.897"/>
		<path style="fill:#76A87E;" d="M145.655,123.586c-2.26,0-4.52-0.865-6.241-2.586c-3.452-3.452-3.452-9.031,0-12.482l8.828-8.828
			c3.452-3.452,9.031-3.452,12.482,0s3.452,9.031,0,12.482L151.896,121C150.175,122.721,147.915,123.586,145.655,123.586"/>
		<path style="fill:#76A87E;" d="M225.103,123.586c-2.26,0-4.52-0.865-6.241-2.586c-3.452-3.452-3.452-9.031,0-12.482l8.828-8.828
			c3.452-3.452,9.031-3.452,12.482,0c3.452,3.452,3.452,9.031,0,12.482L231.345,121
			C229.623,122.721,227.363,123.586,225.103,123.586"/>
		<path style="fill:#76A87E;" d="M260.414,123.586c-2.26,0-4.52-0.865-6.241-2.586c-3.452-3.452-3.452-9.031,0-12.482L263,99.69
			c3.452-3.452,9.031-3.452,12.482,0c3.452,3.452,3.452,9.031,0,12.482L266.655,121
			C264.934,122.721,262.674,123.586,260.414,123.586"/>
	</g>
	<path style="fill:#13A085;" d="M498.759,397.241C498.759,460.623,447.382,512,384,512s-114.759-51.377-114.759-114.759
		S320.618,282.483,384,282.483S498.759,333.859,498.759,397.241"/>
	<path style="fill:#16222D;" d="M295.724,323.94v-41.454h-52.966v44.138h50.918C294.365,325.732,295,324.805,295.724,323.94"/>
	<g>
		<path style="fill:#FFFFFF;" d="M384,468.845c-24.338,0-44.138-19.8-44.138-44.138c0-4.882,3.946-8.828,8.828-8.828
			c4.882,0,8.828,3.946,8.828,8.828c0,14.601,11.882,26.483,26.483,26.483c7.812,0,15.183-3.425,20.224-9.384
			c2.269-2.684,3.302-6.153,2.931-9.763c-0.406-3.875-2.401-7.486-5.491-9.878l-46.168-35.911
			c-6.868-5.349-11.317-13.365-12.209-22.007c-0.874-8.439,1.607-16.596,7.009-22.969c8.404-9.94,20.692-15.642,33.704-15.642
			c24.338,0,44.138,19.809,44.138,44.138c0,4.882-3.946,8.828-8.828,8.828c-4.882,0-8.828-3.946-8.828-8.828
			c0-14.601-11.882-26.483-26.483-26.483c-7.812,0-15.183,3.425-20.224,9.393c-2.269,2.684-3.302,6.135-2.931,9.746
			c0.406,3.884,2.401,7.486,5.491,9.887l46.168,35.919c6.859,5.323,11.308,13.347,12.209,21.972
			c0.883,8.448-1.607,16.614-7.009,22.996C409.3,463.142,397.012,468.845,384,468.845"/>
		<path style="fill:#FFFFFF;" d="M384,485.517c-4.882,0-8.828-3.946-8.828-8.828V317.793c0-4.882,3.946-8.828,8.828-8.828
			c4.882,0,8.828,3.946,8.828,8.828V476.69C392.828,481.571,388.882,485.517,384,485.517"/>
	</g>
</g>
</svg>