<?xml version="1.0" encoding="iso-8859-1"?>
<!-- Uploaded to: SVG Repo, www.svgrepo.com, Generator: SVG Repo Mixer Tools -->
<svg fill="#000000" height="800px" width="800px" version="1.1" id="Layer_1" xmlns="http://www.w3.org/2000/svg" xmlns:xlink="http://www.w3.org/1999/xlink" 
	 viewBox="0 0 482.082 482.082" xml:space="preserve">
<g>
	<g>
		<path d="M378.649,0.2L103.782,0C88.955-0.011,76.884,12.043,76.873,26.87l-0.311,428.1c-0.011,14.831,12.043,26.902,26.87,26.912
			l274.867,0.2c14.824,0.011,26.899-12.043,26.909-26.873l0.311-428.1C405.53,12.282,393.473,0.21,378.649,0.2z M124.898,62.887
			c0.003-4.368,3.545-7.906,7.912-7.902l216.73,0.157c4.368,0.003,7.906,3.546,7.902,7.914l-0.062,85.13
			c-0.003,4.366-3.546,7.904-7.914,7.901l-216.73-0.157c-4.367-0.003-7.904-3.546-7.901-7.912L124.898,62.887z M160.844,441.654
			c-0.002,2.993-2.431,5.418-5.424,5.416l-30.985-0.023c-2.994-0.002-5.419-2.431-5.417-5.424l0.023-30.985
			c0.002-2.994,2.431-5.419,5.424-5.416l30.985,0.022c2.993,0.002,5.419,2.431,5.417,5.424L160.844,441.654z M160.896,370.05
			c-0.002,2.993-2.431,5.418-5.424,5.416l-30.985-0.023c-2.993-0.002-5.419-2.431-5.417-5.424l0.023-30.984
			c0.002-2.993,2.431-5.418,5.424-5.416l30.985,0.022c2.993,0.002,5.419,2.431,5.417,5.425L160.896,370.05z M160.948,298.445
			c-0.002,2.994-2.431,5.419-5.424,5.417l-30.985-0.023c-2.993-0.002-5.419-2.431-5.417-5.424l0.023-30.984
			c0.002-2.994,2.431-5.419,5.424-5.416l30.985,0.022c2.993,0.002,5.419,2.431,5.417,5.424L160.948,298.445z M161,226.84
			c-0.002,2.994-2.431,5.419-5.424,5.417l-30.985-0.023c-2.993-0.002-5.419-2.431-5.416-5.424l0.022-30.984
			c0.002-2.993,2.431-5.418,5.424-5.416l30.985,0.022c2.993,0.002,5.419,2.431,5.416,5.424L161,226.84z M228.152,441.703
			c-0.002,2.993-2.43,5.418-5.424,5.416l-30.984-0.023c-2.994-0.002-5.418-2.431-5.416-5.424l0.022-30.985
			c0.002-2.994,2.431-5.419,5.424-5.416l30.984,0.022c2.994,0.002,5.418,2.431,5.416,5.424L228.152,441.703z M228.204,370.099
			c-0.002,2.993-2.43,5.418-5.424,5.416l-30.984-0.023c-2.994-0.002-5.418-2.431-5.416-5.424l0.022-30.985
			c0.002-2.993,2.43-5.418,5.424-5.416l30.984,0.023c2.994,0.002,5.418,2.431,5.416,5.424L228.204,370.099z M228.256,298.494
			c-0.002,2.994-2.431,5.419-5.424,5.417l-30.984-0.023c-2.994-0.002-5.418-2.431-5.416-5.424l0.022-30.985
			c0.002-2.994,2.431-5.419,5.424-5.417l30.984,0.023c2.994,0.002,5.418,2.431,5.416,5.424L228.256,298.494z M228.308,226.889
			c-0.002,2.994-2.43,5.419-5.424,5.416l-30.984-0.022c-2.994-0.002-5.418-2.431-5.416-5.424l0.022-30.984
			c0.002-2.993,2.43-5.418,5.424-5.416l30.984,0.022c2.994,0.002,5.418,2.431,5.416,5.424L228.308,226.889z M295.462,441.752
			c-0.002,2.993-2.43,5.418-5.423,5.416l-30.985-0.023c-2.993-0.002-5.418-2.431-5.416-5.424l0.023-30.985
			c0.002-2.994,2.431-5.419,5.424-5.417l30.985,0.023c2.993,0.002,5.417,2.431,5.415,5.424L295.462,441.752z M295.514,370.147
			c-0.002,2.993-2.43,5.418-5.423,5.416l-30.985-0.022c-2.993-0.002-5.418-2.431-5.416-5.424l0.023-30.985
			c0.002-2.993,2.431-5.418,5.424-5.416l30.985,0.023c2.993,0.002,5.417,2.431,5.415,5.424L295.514,370.147z M295.566,298.543
			c-0.002,2.994-2.431,5.419-5.424,5.417l-30.984-0.023c-2.993-0.002-5.418-2.431-5.416-5.424l0.023-30.985
			c0.002-2.994,2.431-5.419,5.424-5.417l30.985,0.023c2.993,0.002,5.417,2.431,5.415,5.424L295.566,298.543z M295.618,226.938
			c-0.002,2.994-2.43,5.419-5.423,5.416l-30.985-0.022c-2.993-0.002-5.418-2.431-5.416-5.424l0.022-30.984
			c0.002-2.993,2.431-5.418,5.424-5.416l30.985,0.023c2.993,0.002,5.417,2.431,5.415,5.424L295.618,226.938z M362.771,441.801
			c-0.002,2.993-2.431,5.418-5.424,5.416l-30.984-0.022c-2.994-0.002-5.419-2.431-5.417-5.424l0.075-102.589
			c0.002-2.993,2.431-5.418,5.424-5.416l30.986,0.023c2.993,0.002,5.418,2.431,5.416,5.424L362.771,441.801z M362.875,298.592
			c-0.002,2.994-2.431,5.419-5.424,5.417l-30.984-0.023c-2.994-0.002-5.419-2.431-5.417-5.424l0.022-30.984
			c0.002-2.994,2.431-5.419,5.425-5.417l30.984,0.023c2.993,0.002,5.418,2.431,5.416,5.424L362.875,298.592z M362.927,226.987
			c-0.002,2.994-2.431,5.419-5.424,5.417l-30.984-0.023c-2.994-0.002-5.419-2.431-5.417-5.424l0.023-30.984
			c0.002-2.993,2.431-5.418,5.424-5.416l30.986,0.023c2.993,0.002,5.418,2.431,5.416,5.424L362.927,226.987z"/>
	</g>
</g>
</svg>