<?xml version="1.0" encoding="iso-8859-1"?>
<!-- Uploaded to: SVG Repo, www.svgrepo.com, Generator: SVG Repo Mixer Tools -->
<svg fill="#000000" height="800px" width="800px" version="1.1" id="Layer_1" xmlns="http://www.w3.org/2000/svg" xmlns:xlink="http://www.w3.org/1999/xlink" 
	 viewBox="0 0 491.52 491.52" xml:space="preserve">
<g>
	<g>
		<g>
			<path d="M368.599,0H122.921C88.959,0,61.44,27.519,61.44,61.481v368.558c0,33.962,27.519,61.481,61.481,61.481h245.678
				c33.962,0,61.481-27.519,61.481-61.481V61.481C430.08,27.519,402.561,0,368.599,0z M389.12,430.039
				c0,11.34-9.181,20.521-20.521,20.521H122.921c-11.34,0-20.521-9.181-20.521-20.521V61.481c0-11.34,9.181-20.521,20.521-20.521
				h245.678c11.34,0,20.521,9.181,20.521,20.521V430.039z"/>
			<path d="M348.162,61.45h-204.8c-11.311,0-20.48,9.169-20.48,20.48v81.92c0,11.311,9.169,20.48,20.48,20.48h204.8
				c11.311,0,20.48-9.169,20.48-20.48V81.93C368.642,70.619,359.473,61.45,348.162,61.45z M327.682,143.37h-163.84v-40.96h163.84
				V143.37z"/>
			<path d="M204.802,225.28h-61.44c-11.311,0-20.48,9.169-20.48,20.48s9.169,20.48,20.48,20.48h61.44
				c11.311,0,20.48-9.169,20.48-20.48S216.113,225.28,204.802,225.28z"/>
			<path d="M348.162,225.28h-61.44c-11.311,0-20.48,9.169-20.48,20.48s9.169,20.48,20.48,20.48h61.44
				c11.311,0,20.48-9.169,20.48-20.48S359.473,225.28,348.162,225.28z"/>
			<path d="M204.802,307.2h-61.44c-11.311,0-20.48,9.169-20.48,20.48c0,11.311,9.169,20.48,20.48,20.48h61.44
				c11.311,0,20.48-9.169,20.48-20.48C225.282,316.369,216.113,307.2,204.802,307.2z"/>
			<path d="M348.162,307.2h-61.44c-11.311,0-20.48,9.169-20.48,20.48c0,11.311,9.169,20.48,20.48,20.48h61.44
				c11.311,0,20.48-9.169,20.48-20.48C368.642,316.369,359.473,307.2,348.162,307.2z"/>
			<path d="M204.802,389.12h-61.44c-11.311,0-20.48,9.169-20.48,20.48s9.169,20.48,20.48,20.48h61.44
				c11.311,0,20.48-9.169,20.48-20.48S216.113,389.12,204.802,389.12z"/>
			<path d="M348.162,389.12h-61.44c-11.311,0-20.48,9.169-20.48,20.48s9.169,20.48,20.48,20.48h61.44
				c11.311,0,20.48-9.169,20.48-20.48S359.473,389.12,348.162,389.12z"/>
		</g>
	</g>
</g>
</svg>