<?xml version="1.0" encoding="iso-8859-1"?>
<!-- Uploaded to: SVG Repo, www.svgrepo.com, Generator: SVG Repo Mixer Tools -->
<svg version="1.1" id="Layer_1" xmlns="http://www.w3.org/2000/svg" xmlns:xlink="http://www.w3.org/1999/xlink" 
	 viewBox="0 0 512 512" xml:space="preserve">
<g>
	<path style="fill:#2D527C;" d="M451.735,512H60.265c-8.045,0-14.566-6.523-14.566-14.566V322.52
		c0-8.044,6.521-14.566,14.566-14.566s14.566,6.523,14.566,14.566v160.347h362.337V29.133H74.832v202.346
		c0,8.044-6.521,14.566-14.566,14.566s-14.566-6.523-14.566-14.566V14.566C45.699,6.523,52.22,0,60.265,0h391.47
		c8.044,0,14.566,6.523,14.566,14.566v482.867C466.301,505.479,459.78,512,451.735,512z"/>
	<path style="fill:#2D527C;" d="M393.47,182.985c-8.044,0-14.566-6.523-14.566-14.566V87.214H133.097v66.638h170.608
		c8.044,0,14.566,6.523,14.566,14.566c0,8.044-6.523,14.566-14.566,14.566H118.53c-8.045,0-14.566-6.523-14.566-14.566V72.648
		c0-8.044,6.521-14.566,14.566-14.566H393.47c8.044,0,14.566,6.523,14.566,14.566v95.771
		C408.036,176.464,401.515,182.985,393.47,182.985z"/>
</g>
<g>
	<rect x="118.526" y="231.473" style="fill:#CDE6F8;" width="89.758" height="65.913"/>
	<rect x="208.298" y="297.4" style="fill:#CDE6F8;" width="95.409" height="80.828"/>
	<rect x="303.708" y="378.229" style="fill:#CDE6F8;" width="89.758" height="65.913"/>
	<rect x="118.526" y="378.229" style="fill:#CDE6F8;" width="89.758" height="65.913"/>
</g>
<path style="fill:#2D527C;" d="M393.47,332.713c8.044,0,14.566-6.523,14.566-14.566v-86.668c0-8.044-6.523-14.566-14.566-14.566
	h-89.765h-95.409H118.53c-8.045,0-14.566,6.523-14.566,14.566v65.917v80.834v65.917c0,8.044,6.521,14.566,14.566,14.566h89.765
	h95.409h89.765c8.044,0,14.566-6.523,14.566-14.566V378.23c0-8.044-6.523-14.566-14.566-14.566h-75.199v-66.268v-51.351h60.632
	v72.102C378.903,326.192,385.426,332.713,393.47,332.713z M222.862,363.664v-51.702h66.277v51.702H222.862z M133.097,311.962h60.632
	v51.702h-60.632V311.962z M289.138,282.83h-66.277v-36.784h66.277V282.83z M133.097,246.045h60.632v36.784h-60.632V246.045z
	 M133.097,392.797h60.632v36.784h-60.632V392.797z M222.862,392.797h66.277v36.784h-66.277V392.797z M378.903,429.581h-60.632
	v-36.784h60.632V429.581z"/>
</svg>