<?xml version="1.0" encoding="iso-8859-1"?>
<!-- Uploaded to: SVG Repo, www.svgrepo.com, Generator: SVG Repo Mixer Tools -->
<svg version="1.1" id="Layer_1" xmlns="http://www.w3.org/2000/svg" xmlns:xlink="http://www.w3.org/1999/xlink" 
	 viewBox="0 0 512 512" xml:space="preserve">
<path style="fill:#293133;" d="M407.325,0H104.675C82.824,0,65.11,17.714,65.11,39.565v432.87c0,21.851,17.714,39.565,39.565,39.565
	h302.649c21.851,0,39.565-17.714,39.565-39.565V39.565C446.89,17.714,429.176,0,407.325,0z"/>
<rect x="111.851" y="46.741" style="fill:#56D676;" width="288.299" height="115.988"/>
<polygon style="opacity:0.15;fill:#333333;enable-background:new    ;" points="400.149,46.741 111.851,46.741 111.851,46.741 
	111.851,81.797 111.851,162.73 146.968,162.73 146.968,81.797 400.149,81.797 "/>
<g>
	<path style="fill:#CCF7FF;" d="M209.411,446.37h11.241c11.509,0,20.839-9.33,20.839-20.84v-11.241
		c0-11.509-9.329-20.839-20.839-20.839h-11.241c-11.509,0-20.839,9.33-20.839,20.839v11.241
		C188.572,437.039,197.903,446.37,209.411,446.37z"/>
	<path style="fill:#CCF7FF;" d="M127.476,446.37h11.241c11.509,0,20.839-9.33,20.839-20.84v-11.241
		c0-11.509-9.329-20.839-20.839-20.839h-11.241c-11.509,0-20.839,9.33-20.839,20.839v11.241
		C106.636,437.039,115.967,446.37,127.476,446.37z"/>
</g>
<path style="fill:#FF8095;" d="M405.364,237.88v11.241c0,11.509-9.329,20.839-20.84,20.839h-11.241
	c-11.509,0-20.839-9.329-20.839-20.839V237.88c0-11.509,9.329-20.839,20.839-20.839h11.241
	C396.033,217.041,405.364,226.37,405.364,237.88z"/>
<g>
	<path style="fill:#CCF7FF;" d="M291.347,358.165h11.241c11.509,0,20.84-9.33,20.84-20.839v-11.241
		c0-11.509-9.33-20.839-20.839-20.839h-11.241c-11.509,0-20.839,9.33-20.839,20.839v11.241
		C270.508,348.835,279.839,358.165,291.347,358.165z"/>
	<path style="fill:#CCF7FF;" d="M209.411,358.165h11.241c11.509,0,20.839-9.33,20.839-20.839v-11.241
		c0-11.509-9.329-20.839-20.839-20.839h-11.241c-11.509,0-20.839,9.33-20.839,20.839v11.241
		C188.572,348.835,197.903,358.165,209.411,358.165z"/>
	<path style="fill:#CCF7FF;" d="M127.476,358.165h11.241c11.509,0,20.839-9.33,20.839-20.839v-11.241
		c0-11.509-9.329-20.839-20.839-20.839h-11.241c-11.509,0-20.839,9.33-20.839,20.839v11.241
		C106.636,348.835,115.967,358.165,127.476,358.165z"/>
	<path style="fill:#CCF7FF;" d="M291.347,269.96h11.241c11.509,0,20.84-9.329,20.84-20.839v-11.241
		c0-11.509-9.33-20.839-20.839-20.839h-11.241c-11.509,0-20.839,9.329-20.839,20.839v11.241
		C270.508,260.63,279.839,269.96,291.347,269.96z"/>
	<path style="fill:#CCF7FF;" d="M209.411,269.96h11.241c11.509,0,20.839-9.329,20.839-20.839v-11.241
		c0-11.509-9.329-20.839-20.839-20.839h-11.241c-11.509,0-20.839,9.329-20.839,20.839v11.241
		C188.572,260.63,197.903,269.96,209.411,269.96z"/>
	<path style="fill:#CCF7FF;" d="M127.476,269.96h11.241c11.509,0,20.839-9.329,20.839-20.839v-11.241
		c0-11.509-9.329-20.839-20.839-20.839h-11.241c-11.509,0-20.839,9.329-20.839,20.839v11.241
		C106.636,260.63,115.967,269.96,127.476,269.96z"/>
	<path style="fill:#CCF7FF;" d="M291.347,446.37h11.241c11.509,0,20.84-9.33,20.84-20.84v-11.241
		c0-11.509-9.33-20.839-20.839-20.839h-11.241c-11.509,0-20.839,9.33-20.839,20.839v11.241
		C270.508,437.039,279.839,446.37,291.347,446.37z"/>
</g>
<path style="fill:#56D676;" d="M405.364,425.53c0,11.509-9.329,20.84-20.84,20.84h-11.241c-11.509,0-20.839-9.33-20.839-20.839
	v-99.446c0-11.509,9.329-20.839,20.839-20.839h11.241c11.509,0,20.839,9.33,20.839,20.839L405.364,425.53L405.364,425.53z"/>
</svg>