<?xml version="1.0" encoding="iso-8859-1"?>
<!-- Uploaded to: SVG Repo, www.svgrepo.com, Generator: SVG Repo Mixer Tools -->
<svg height="800px" width="800px" version="1.1" id="Layer_1" xmlns="http://www.w3.org/2000/svg" xmlns:xlink="http://www.w3.org/1999/xlink" 
	 viewBox="0 0 512 512" xml:space="preserve">
<g>
	<path style="fill:#424A60;" d="M402.388,512H109.603c-16.658,0-30.155-13.506-30.155-30.164V30.164
		C79.448,13.506,92.946,0,109.603,0h292.785c16.658,0,30.164,13.506,30.164,30.164v451.672C432.552,498.494,419.046,512,402.388,512
		"/>
	<path style="fill:#74972F;" d="M114.756,123.586h282.483V35.31H114.756V123.586z"/>
	<path style="fill:#DD691D;" d="M123.584,476.69h141.241v-35.31H123.584V476.69z"/>
	<g>
		<path style="fill:#7383BF;" d="M123.584,406.069h52.966v-35.31h-52.966V406.069z"/>
		<path style="fill:#7383BF;" d="M220.687,406.069h52.966v-35.31h-52.966V406.069z"/>
		<path style="fill:#7383BF;" d="M317.79,406.069h52.966v-35.31H317.79V406.069z"/>
		<path style="fill:#7383BF;" d="M317.79,476.69h52.966v-35.31H317.79V476.69z"/>
		<path style="fill:#7383BF;" d="M317.79,335.448h52.966v-35.31H317.79V335.448z"/>
		<path style="fill:#7383BF;" d="M220.687,335.448h52.966v-35.31h-52.966V335.448z"/>
		<path style="fill:#7383BF;" d="M123.584,335.448h52.966v-35.31h-52.966V335.448z"/>
		<path style="fill:#7383BF;" d="M123.584,264.828h52.966v-35.31h-52.966V264.828z"/>
		<path style="fill:#7383BF;" d="M220.687,264.828h52.966v-35.31h-52.966V264.828z"/>
		<path style="fill:#7383BF;" d="M317.79,264.828h52.966v-35.31H317.79V264.828z"/>
		<path style="fill:#7383BF;" d="M317.79,194.207h52.966v-35.31H317.79V194.207z"/>
		<path style="fill:#7383BF;" d="M220.687,194.207h52.966v-35.31h-52.966V194.207z"/>
		<path style="fill:#7383BF;" d="M123.584,194.207h52.966v-35.31h-52.966V194.207z"/>
	</g>
	<path style="fill:#577019;" d="M185.377,88.276h-17.655c-4.873,0-8.828-3.946-8.828-8.828c0-4.882,3.955-8.828,8.828-8.828h17.655
		c4.873,0,8.828,3.946,8.828,8.828C194.204,84.33,190.249,88.276,185.377,88.276 M238.342,88.276h-17.655
		c-4.873,0-8.828-3.946-8.828-8.828c0-4.882,3.955-8.828,8.828-8.828h17.655c4.873,0,8.828,3.946,8.828,8.828
		C247.17,84.33,243.215,88.276,238.342,88.276 M291.308,88.276h-17.655c-4.873,0-8.828-3.946-8.828-8.828
		c0-4.882,3.955-8.828,8.828-8.828h17.655c4.873,0,8.828,3.946,8.828,8.828C300.135,84.33,296.181,88.276,291.308,88.276
		 M344.273,88.276h-17.655c-4.873,0-8.828-3.946-8.828-8.828c0-4.882,3.955-8.828,8.828-8.828h17.655
		c4.873,0,8.828,3.946,8.828,8.828C353.101,84.33,349.146,88.276,344.273,88.276"/>
</g>
</svg>