<?xml version="1.0" encoding="iso-8859-1"?>
<!-- Uploaded to: SVG Repo, www.svgrepo.com, Generator: SVG Repo Mixer Tools -->
<svg fill="#000000" height="800px" width="800px" version="1.1" id="Capa_1" xmlns="http://www.w3.org/2000/svg" xmlns:xlink="http://www.w3.org/1999/xlink" 
	 viewBox="0 0 612 612" xml:space="preserve">
<g>
	<g>
		<path d="M480.42,0H131.58c-20.196,0-36.72,16.524-36.72,36.72v538.56c0,20.196,16.524,36.72,36.72,36.72h348.84
			c20.196,0,36.72-16.524,36.72-36.72V36.72C517.14,16.524,500.616,0,480.42,0z M223.38,556.92c0,6.732-5.508,12.24-12.24,12.24
			h-67.32c-6.732,0-12.24-5.508-12.24-12.24v-42.84c0-6.732,5.508-12.24,12.24-12.24h67.32c6.732,0,12.24,5.508,12.24,12.24V556.92z
			 M223.38,452.88c0,6.732-5.508,12.24-12.24,12.24h-67.32c-6.732,0-12.24-5.508-12.24-12.24v-42.84
			c0-6.732,5.508-12.24,12.24-12.24h67.32c6.732,0,12.24,5.508,12.24,12.24V452.88z M223.38,348.84c0,6.732-5.508,12.24-12.24,12.24
			h-67.32c-6.732,0-12.24-5.508-12.24-12.24V306c0-6.732,5.508-12.24,12.24-12.24h67.32c6.732,0,12.24,5.508,12.24,12.24V348.84z
			 M223.38,244.8c0,6.732-5.508,12.24-12.24,12.24h-67.32c-6.732,0-12.24-5.508-12.24-12.24v-42.84c0-6.732,5.508-12.24,12.24-12.24
			h67.32c6.732,0,12.24,5.508,12.24,12.24V244.8z M351.9,556.92c0,6.732-5.508,12.24-12.24,12.24h-67.32
			c-6.732,0-12.24-5.508-12.24-12.24v-42.84c0-6.732,5.508-12.24,12.24-12.24h67.32c6.732,0,12.24,5.508,12.24,12.24V556.92z
			 M351.9,452.88c0,6.732-5.508,12.24-12.24,12.24h-67.32c-6.732,0-12.24-5.508-12.24-12.24v-42.84c0-6.732,5.508-12.24,12.24-12.24
			h67.32c6.732,0,12.24,5.508,12.24,12.24V452.88z M351.9,348.84c0,6.732-5.508,12.24-12.24,12.24h-67.32
			c-6.732,0-12.24-5.508-12.24-12.24V306c0-6.732,5.508-12.24,12.24-12.24h67.32c6.732,0,12.24,5.508,12.24,12.24V348.84z
			 M351.9,244.8c0,6.732-5.508,12.24-12.24,12.24h-67.32c-6.732,0-12.24-5.508-12.24-12.24v-42.84c0-6.732,5.508-12.24,12.24-12.24
			h67.32c6.732,0,12.24,5.508,12.24,12.24V244.8z M480.42,556.92c0,6.732-5.508,12.24-12.24,12.24h-67.32
			c-6.732,0-12.24-5.508-12.24-12.24V410.04c0-6.732,5.508-12.24,12.24-12.24h67.32c6.732,0,12.24,5.508,12.24,12.24V556.92z
			 M480.42,348.84c0,6.732-5.508,12.24-12.24,12.24h-67.32c-6.732,0-12.24-5.508-12.24-12.24V306c0-6.732,5.508-12.24,12.24-12.24
			h67.32c6.732,0,12.24,5.508,12.24,12.24V348.84z M480.42,244.8c0,6.732-5.508,12.24-12.24,12.24h-67.32
			c-6.732,0-12.24-5.508-12.24-12.24v-42.84c0-6.732,5.508-12.24,12.24-12.24h67.32c6.732,0,12.24,5.508,12.24,12.24V244.8z
			 M480.42,140.76c0,6.732-5.508,12.24-12.24,12.24H143.82c-6.732,0-12.24-5.508-12.24-12.24V55.08c0-6.732,5.508-12.24,12.24-12.24
			h324.36c6.732,0,12.24,5.508,12.24,12.24V140.76z"/>
		<path d="M480.42,0H131.58c-20.196,0-36.72,16.524-36.72,36.72v538.56c0,20.196,16.524,36.72,36.72,36.72h348.84
			c20.196,0,36.72-16.524,36.72-36.72V36.72C517.14,16.524,500.616,0,480.42,0z M223.38,556.92c0,6.732-5.508,12.24-12.24,12.24
			h-67.32c-6.732,0-12.24-5.508-12.24-12.24v-42.84c0-6.732,5.508-12.24,12.24-12.24h67.32c6.732,0,12.24,5.508,12.24,12.24V556.92z
			 M223.38,452.88c0,6.732-5.508,12.24-12.24,12.24h-67.32c-6.732,0-12.24-5.508-12.24-12.24v-42.84
			c0-6.732,5.508-12.24,12.24-12.24h67.32c6.732,0,12.24,5.508,12.24,12.24V452.88z M223.38,348.84c0,6.732-5.508,12.24-12.24,12.24
			h-67.32c-6.732,0-12.24-5.508-12.24-12.24V306c0-6.732,5.508-12.24,12.24-12.24h67.32c6.732,0,12.24,5.508,12.24,12.24V348.84z
			 M223.38,244.8c0,6.732-5.508,12.24-12.24,12.24h-67.32c-6.732,0-12.24-5.508-12.24-12.24v-42.84c0-6.732,5.508-12.24,12.24-12.24
			h67.32c6.732,0,12.24,5.508,12.24,12.24V244.8z M351.9,556.92c0,6.732-5.508,12.24-12.24,12.24h-67.32
			c-6.732,0-12.24-5.508-12.24-12.24v-42.84c0-6.732,5.508-12.24,12.24-12.24h67.32c6.732,0,12.24,5.508,12.24,12.24V556.92z
			 M351.9,452.88c0,6.732-5.508,12.24-12.24,12.24h-67.32c-6.732,0-12.24-5.508-12.24-12.24v-42.84c0-6.732,5.508-12.24,12.24-12.24
			h67.32c6.732,0,12.24,5.508,12.24,12.24V452.88z M351.9,348.84c0,6.732-5.508,12.24-12.24,12.24h-67.32
			c-6.732,0-12.24-5.508-12.24-12.24V306c0-6.732,5.508-12.24,12.24-12.24h67.32c6.732,0,12.24,5.508,12.24,12.24V348.84z
			 M351.9,244.8c0,6.732-5.508,12.24-12.24,12.24h-67.32c-6.732,0-12.24-5.508-12.24-12.24v-42.84c0-6.732,5.508-12.24,12.24-12.24
			h67.32c6.732,0,12.24,5.508,12.24,12.24V244.8z M480.42,556.92c0,6.732-5.508,12.24-12.24,12.24h-67.32
			c-6.732,0-12.24-5.508-12.24-12.24V410.04c0-6.732,5.508-12.24,12.24-12.24h67.32c6.732,0,12.24,5.508,12.24,12.24V556.92z
			 M480.42,348.84c0,6.732-5.508,12.24-12.24,12.24h-67.32c-6.732,0-12.24-5.508-12.24-12.24V306c0-6.732,5.508-12.24,12.24-12.24
			h67.32c6.732,0,12.24,5.508,12.24,12.24V348.84z M480.42,244.8c0,6.732-5.508,12.24-12.24,12.24h-67.32
			c-6.732,0-12.24-5.508-12.24-12.24v-42.84c0-6.732,5.508-12.24,12.24-12.24h67.32c6.732,0,12.24,5.508,12.24,12.24V244.8z
			 M480.42,140.76c0,6.732-5.508,12.24-12.24,12.24H143.82c-6.732,0-12.24-5.508-12.24-12.24V55.08c0-6.732,5.508-12.24,12.24-12.24
			h324.36c6.732,0,12.24,5.508,12.24,12.24V140.76z"/>
	</g>
</g>
</svg>